<svg width="370" height="512" viewBox="0 0 370 512" fill="none" xmlns="http://www.w3.org/2000/svg">
<path d="M238.963 512C202.943 512 176.691 503.393 160.204 485.631C143.718 467.868 135.744 449.282 135.744 428.773C135.744 421.539 137.088 415.13 140.224 410.094C142.912 405.059 146.854 401.03 151.782 398.283C156.71 395.536 162.892 393.705 170.06 393.705C177.228 393.705 183.411 395.079 188.339 398.283C193.267 401.03 197.209 405.059 199.897 410.094C202.585 415.13 204.377 421.448 204.377 428.773C204.377 437.837 202.137 445.162 198.105 450.564C194.073 456.057 188.787 460.086 182.963 461.917C187.891 468.692 195.865 473.728 206.527 476.933C217.19 480.137 227.852 481.511 238.604 481.511C253.746 481.511 267.097 477.391 279.103 469.242C291.11 461.093 299.98 448.824 305.804 432.893C311.628 416.961 314.226 398.833 314.226 378.323C314.226 356.074 311.09 337.396 304.908 321.923C298.636 305.991 289.766 294.18 277.759 286.947C265.753 279.256 252.85 275.594 238.604 275.594C229.286 275.594 218.175 279.714 204.377 287.405L179.289 299.674V286.947L292.722 132.395L135.744 132.395L135.744 292.898C135.744 306.083 138.432 316.979 144.166 325.677C149.99 334.283 158.86 338.403 170.419 338.403C179.737 338.403 188.249 335.199 196.671 328.881C205.094 322.472 212.262 314.781 218.444 306.175C219.34 304.343 220.236 302.97 221.132 302.512C222.476 301.597 223.372 301.139 224.716 301.139C226.956 301.139 229.196 302.054 232.243 304.343C234.931 307.548 236.275 311.119 236.275 315.239C236.275 317.07 235.379 319.817 234.931 323.388C228.659 338.403 219.788 349.757 208.23 357.448C196.671 365.139 184.217 369.259 170.419 369.259C136.192 369.259 112.985 362.484 99.6349 348.841C86.7326 335.199 80.1022 316.521 80.1022 293.356V132.395H0L0 102.363H80.5502V34.1516L62.2718 15.4735V0L115.673 0L135.654 10.4378V101.906L343.436 101.448L363.865 122.323L236.723 252.887C244.249 249.682 252.313 247.851 260.735 246.936C274.534 246.936 290.124 251.514 306.969 260.578C324.351 269.185 337.701 281.453 347.02 296.927C356.338 312.401 362.61 326.959 365.298 341.059C367.986 355.159 369.778 367.428 369.778 378.781C369.778 403.777 364.402 426.941 354.188 448.366C343.973 469.7 328.383 486.089 307.058 496.526C286.092 506.964 263.423 512 238.963 512Z" fill="#585CFB"/>
</svg>
